<svg width="152.000000" height="11.000000" viewBox="0 0 152 11" fill="none" xmlns="http://www.w3.org/2000/svg" xmlns:xlink="http://www.w3.org/1999/xlink">
	<desc>
			Created with Pixso.
	</desc>
	<defs/>
	<path id="BUSINESS thoughts 💭" d="M17.46 5.57C17.86 5.94 18.5 6.25 19.39 6.51Q20.45 6.82 20.85 7.13C21.12 7.34 21.25 7.64 21.25 8.02C21.25 8.4 21.11 8.7 20.82 8.93C20.53 9.15 20.11 9.26 19.57 9.26C18.98 9.26 18.52 9.12 18.17 8.85Q17.95 8.68 17.82 8.45Q17.64 8.14 17.64 7.73L16.61 7.73C16.61 8.18 16.73 8.59 16.98 8.95C17.24 9.31 17.6 9.59 18.06 9.79C18.53 10 19.03 10.1 19.57 10.1Q20.81 10.1 21.55 9.53Q21.9 9.26 22.09 8.89Q22.29 8.5 22.29 8.01C22.29 7.61 22.2 7.26 22.02 6.97C21.85 6.68 21.57 6.42 21.21 6.2C20.84 5.98 20.33 5.78 19.68 5.6C19.03 5.41 18.57 5.21 18.3 4.99C18.03 4.77 17.89 4.5 17.89 4.18C17.89 3.79 18.04 3.48 18.32 3.25C18.61 3.03 19 2.92 19.51 2.92Q20.33 2.92 20.78 3.32C21.09 3.59 21.24 3.96 21.24 4.44L22.27 4.44C22.27 4 22.16 3.6 21.93 3.24C21.69 2.87 21.37 2.59 20.95 2.38C20.53 2.17 20.05 2.07 19.51 2.07C18.72 2.07 18.08 2.27 17.59 2.67C17.1 3.07 16.85 3.58 16.85 4.2C16.85 4.74 17.05 5.2 17.46 5.57ZM47.47 5.57C47.87 5.94 48.51 6.25 49.4 6.51C50.1 6.71 50.59 6.92 50.86 7.13C51.13 7.34 51.26 7.64 51.26 8.02C51.26 8.4 51.12 8.7 50.83 8.93C50.54 9.15 50.12 9.26 49.58 9.26C48.99 9.26 48.53 9.12 48.18 8.85Q47.96 8.68 47.83 8.45Q47.65 8.14 47.65 7.73L46.62 7.73C46.62 8.18 46.74 8.59 47 8.95C47.25 9.31 47.61 9.59 48.07 9.79C48.54 10 49.04 10.1 49.58 10.1Q50.82 10.1 51.56 9.53Q51.91 9.26 52.1 8.89Q52.3 8.5 52.3 8.01C52.3 7.61 52.21 7.26 52.03 6.97C51.86 6.68 51.58 6.42 51.22 6.2C50.85 5.98 50.34 5.78 49.69 5.6C49.04 5.41 48.58 5.21 48.31 4.99C48.04 4.77 47.91 4.5 47.91 4.18C47.91 3.79 48.05 3.48 48.33 3.25C48.62 3.03 49.01 2.92 49.52 2.92Q50.34 2.92 50.8 3.32C51.1 3.59 51.25 3.96 51.25 4.44L52.28 4.44C52.28 4 52.17 3.6 51.94 3.24C51.71 2.87 51.38 2.59 50.96 2.38C50.54 2.17 50.06 2.07 49.52 2.07C48.74 2.07 48.09 2.27 47.6 2.67C47.11 3.07 46.86 3.58 46.86 4.2C46.86 4.74 47.07 5.2 47.47 5.57ZM55.59 5.57C56 5.94 56.64 6.25 57.53 6.51C58.23 6.71 58.72 6.92 58.99 7.13C59.25 7.34 59.39 7.64 59.39 8.02C59.39 8.4 59.24 8.7 58.95 8.93C58.66 9.15 58.25 9.26 57.7 9.26C57.12 9.26 56.65 9.12 56.3 8.85Q56.08 8.68 55.96 8.45Q55.78 8.14 55.78 7.73L54.74 7.73C54.74 8.18 54.87 8.59 55.12 8.95C55.37 9.31 55.73 9.59 56.2 9.79C56.66 10 57.17 10.1 57.7 10.1Q58.94 10.1 59.68 9.53Q60.04 9.26 60.23 8.89Q60.43 8.5 60.43 8.01C60.43 7.61 60.34 7.26 60.16 6.97C59.98 6.68 59.71 6.42 59.34 6.2C58.98 5.98 58.47 5.78 57.82 5.6C57.17 5.41 56.71 5.21 56.44 4.99C56.17 4.77 56.03 4.5 56.03 4.18C56.03 3.79 56.17 3.48 56.46 3.25C56.74 3.03 57.14 2.92 57.65 2.92Q58.47 2.92 58.92 3.32C59.22 3.59 59.37 3.96 59.37 4.44L60.41 4.44C60.41 4 60.29 3.6 60.06 3.24C59.83 2.87 59.51 2.59 59.09 2.38C58.66 2.17 58.19 2.07 57.65 2.07C56.86 2.07 56.22 2.27 55.73 2.67C55.24 3.07 54.99 3.58 54.99 4.2C54.99 4.74 55.19 5.2 55.59 5.57ZM90.69 8.34Q91.08 7.49 91.08 6.34L91.08 5.84Q91.08 4.7 90.69 3.84C90.43 3.26 90.06 2.82 89.59 2.52C89.11 2.22 88.56 2.07 87.93 2.07C87.31 2.07 86.77 2.22 86.29 2.53C85.81 2.83 85.44 3.27 85.18 3.85C84.92 4.43 84.79 5.09 84.79 5.84L84.79 6.41C84.79 7.14 84.93 7.79 85.19 8.35C85.46 8.91 85.82 9.35 86.3 9.65C86.78 9.95 87.32 10.1 87.94 10.1C88.57 10.1 89.12 9.95 89.59 9.65C90.07 9.35 90.43 8.91 90.69 8.34ZM107.62 9.82C108.1 9.63 108.47 9.35 108.73 8.97L108.73 6.1L105.89 6.1L105.89 6.94L107.7 6.94L107.7 8.7C107.51 8.9 107.27 9.04 106.98 9.13Q106.55 9.26 105.97 9.26Q105.4 9.26 104.96 9.02Q104.61 8.83 104.34 8.48C103.94 7.97 103.74 7.27 103.74 6.39L103.74 5.75C103.74 4.83 103.92 4.13 104.28 3.64C104.64 3.16 105.16 2.92 105.85 2.92C106.89 2.92 107.51 3.43 107.7 4.47L108.73 4.47C108.62 3.7 108.31 3.11 107.82 2.69C107.32 2.28 106.66 2.07 105.85 2.07C104.85 2.07 104.08 2.39 103.53 3.04C102.98 3.69 102.7 4.6 102.7 5.78L102.7 6.46C102.71 7.19 102.85 7.83 103.12 8.38C103.39 8.93 103.77 9.35 104.27 9.65C104.76 9.95 105.33 10.1 105.96 10.1C106.59 10.1 107.15 10.01 107.62 9.82ZM129.78 5.57C130.19 5.94 130.83 6.25 131.72 6.51C132.42 6.71 132.91 6.92 133.18 7.13C133.45 7.34 133.58 7.64 133.58 8.02C133.58 8.4 133.44 8.7 133.14 8.93C132.86 9.15 132.44 9.26 131.89 9.26C131.31 9.26 130.84 9.12 130.49 8.85Q130.28 8.68 130.15 8.45Q129.97 8.14 129.97 7.73L128.93 7.73C128.93 8.18 129.06 8.59 129.31 8.95C129.57 9.31 129.92 9.59 130.39 9.79C130.86 10 131.36 10.1 131.89 10.1Q133.13 10.1 133.88 9.53Q134.23 9.26 134.42 8.89Q134.62 8.5 134.62 8.01C134.62 7.61 134.53 7.26 134.35 6.97C134.17 6.68 133.9 6.42 133.53 6.2C133.17 5.98 132.66 5.78 132.01 5.6C131.36 5.41 130.9 5.21 130.63 4.99C130.36 4.77 130.22 4.5 130.22 4.18C130.22 3.79 130.37 3.48 130.65 3.25C130.94 3.03 131.33 2.92 131.84 2.92Q132.66 2.92 133.11 3.32C133.41 3.59 133.56 3.96 133.56 4.44L134.6 4.44C134.6 4 134.49 3.6 134.25 3.24C134.02 2.87 133.7 2.59 133.28 2.38C132.86 2.17 132.38 2.07 131.84 2.07C131.05 2.07 130.41 2.27 129.92 2.67C129.43 3.07 129.18 3.58 129.18 4.2C129.18 4.74 129.38 5.2 129.78 5.57ZM-0.1 2.17L-0.1 10L2.62 10Q3.86 10 4.54 9.39C5 8.99 5.23 8.44 5.23 7.74Q5.23 7.21 5.01 6.8Q4.94 6.67 4.86 6.55C4.61 6.22 4.28 6 3.86 5.88Q4.33 5.68 4.63 5.32Q4.67 5.28 4.7 5.23C4.91 4.95 5.02 4.62 5.02 4.26Q5.02 3.45 4.62 2.96Q4.51 2.82 4.37 2.7C3.95 2.35 3.31 2.17 2.46 2.17L-0.1 2.17ZM13.86 7.49L13.86 2.17L12.82 2.17L12.82 7.48C12.82 8.04 12.66 8.48 12.36 8.79C12.05 9.1 11.6 9.26 11.01 9.26Q10.23 9.26 9.77 8.87Q9.73 8.83 9.68 8.79C9.37 8.48 9.22 8.04 9.22 7.47L9.22 2.17L8.2 2.17L8.2 7.5Q8.2 8.41 8.63 9.02Q8.77 9.23 8.97 9.41C9.48 9.87 10.16 10.1 11.01 10.1L11.29 10.09Q12.29 10.02 12.94 9.5Q13.06 9.41 13.16 9.3C13.62 8.83 13.85 8.23 13.86 7.49ZM25.28 10L26.32 10L26.32 2.17L25.28 2.17L25.28 10ZM34.77 10L35.81 10L35.81 2.17L34.79 2.17L34.79 8.23L30.84 2.17L29.8 2.17L29.8 10L30.84 10L30.84 3.97L34.77 10ZM40.27 6.38L43.66 6.38L43.66 5.54L40.27 5.54L40.27 3.02L44.16 3.02L44.16 2.17L39.24 2.17L39.24 10L44.21 10L44.21 9.15L40.27 9.15L40.27 6.38ZM70.34 3.02L72.86 3.02L72.86 2.17L66.81 2.17L66.81 3.02L69.32 3.02L69.32 10L70.34 10L70.34 3.02ZM80.59 10L81.63 10L81.63 2.17L80.59 2.17L80.59 5.54L76.65 5.54L76.65 2.17L75.62 2.17L75.62 10L76.65 10L76.65 6.38L80.59 6.38L80.59 10ZM99.73 7.49L99.73 2.17L98.69 2.17L98.69 7.48C98.69 8.04 98.54 8.48 98.23 8.79C97.92 9.1 97.47 9.26 96.89 9.26C96.31 9.26 95.87 9.1 95.55 8.79C95.24 8.48 95.09 8.04 95.09 7.47L95.09 2.17L94.07 2.17L94.07 7.5Q94.08 8.41 94.5 9.02Q94.65 9.23 94.84 9.41Q94.92 9.49 95.01 9.55Q95.74 10.1 96.89 10.1L97.16 10.09C97.95 10.03 98.57 9.77 99.03 9.3C99.49 8.83 99.72 8.23 99.73 7.49ZM117.02 10L118.06 10L118.06 2.17L117.02 2.17L117.02 5.54L113.08 5.54L113.08 2.17L112.05 2.17L112.05 10L113.08 10L113.08 6.38L117.02 6.38L117.02 10ZM124.22 3.02L126.74 3.02L126.74 2.17L120.69 2.17L120.69 3.02L123.2 3.02L123.2 10L124.22 10L124.22 3.02ZM89.49 3.7C89.86 4.19 90.05 4.9 90.05 5.83L90.05 6.41Q90.03 7.77 89.49 8.5C89.12 8.98 88.61 9.23 87.94 9.23C87.28 9.23 86.76 8.97 86.38 8.46C86 7.94 85.81 7.24 85.81 6.34L85.81 5.76C85.82 4.88 86.02 4.19 86.39 3.7C86.76 3.2 87.28 2.95 87.93 2.95Q88.53 2.95 88.97 3.22Q89.27 3.4 89.49 3.7ZM2.49 5.51L0.93 5.51L0.93 3.02L2.46 3.02Q3.23 3.02 3.6 3.32C3.85 3.51 3.98 3.82 3.98 4.25Q3.98 4.62 3.82 4.89Q3.72 5.05 3.57 5.17C3.3 5.4 2.94 5.51 2.49 5.51ZM0.93 9.15L0.93 6.34L2.65 6.34Q3.49 6.34 3.87 6.75Q4.19 7.1 4.19 7.75C4.19 8.19 4.05 8.53 3.77 8.78C3.5 9.03 3.12 9.15 2.64 9.15L0.93 9.15Z" fill="#703412" fill-opacity="1.000000" fill-rule="evenodd"/>
</svg>
